<?xml version="1.0" ?>
<!DOCTYPE svg  PUBLIC '-//W3C//DTD SVG 1.1//EN'  'http://www.w3.org/Graphics/SVG/1.1/DTD/svg11.dtd'>
<!-- Uploaded to: SVG Repo, www.svgrepo.com, Generator: SVG Repo Mixer Tools -->
<svg fill="#000000" width="800px" height="800px" viewBox="0 0 846.66 846.66" style="shape-rendering:geometricPrecision; text-rendering:geometricPrecision; image-rendering:optimizeQuality; fill-rule:evenodd; clip-rule:evenodd" version="1.1" xml:space="preserve" xmlns="http://www.w3.org/2000/svg" xmlns:xlink="http://www.w3.org/1999/xlink">
<defs>
<style type="text/css">
   <![CDATA[
    .fil0 {fill:black;fill-rule:nonzero}
   ]]>
  </style>
</defs>
<g id="Layer_x0020_1">
<path class="fil0" d="M699.41 423.33c-48.05,-20.03 -130.01,-51.47 -194.82,-62.4 -6.27,-1.04 -11.32,-5 -14,-10.25l-141.12 -240.48 -62 0 65.87 222.24c3.65,12.37 -5.7,24.7 -18.48,24.7l0 0.04 -106.97 0c-7.33,0 -13.71,-4.08 -16.98,-10.1l-41.48 -66.54 -43.67 0 45.95 136.68c1.38,4.12 1.29,8.39 0,12.22l-45.95 136.68 43.67 0 42.08 -67.51c3.65,-5.87 9.94,-9.09 16.38,-9.1l0 -0.03 106.97 0c12.65,0 22.8,12.12 18.07,26.15l-65.46 220.83 62 0 141.69 -241.45c3,-5.12 8,-8.34 13.43,-9.24l0 -0.04c64.81,-10.93 146.77,-42.37 194.82,-62.4zm-179.55 -98.82c102.03,19.45 235.59,81.13 235.99,81.31 14.8,6.81 14.98,28.12 0,35.02 -0.4,0.18 -133.96,61.86 -235.99,81.31l-141.95 241.89c-3.1,6.53 -9.76,11.05 -17.46,11.05l-98.8 0 0 -0.05c-12.78,0 -22.13,-12.32 -18.48,-24.7l65.87 -222.23 -70.47 0 -41.48 66.53c-3.27,6.02 -9.65,10.11 -16.98,10.11l-81.15 0 0 -0.06c-12.96,0 -22.48,-12.8 -18.26,-25.37l52.44 -155.99c0,-4.56 -53.5,-152.32 -53.5,-162.1 0,-10.67 8.65,-19.32 19.32,-19.32l81.15 0 0 0.03c6.43,0.01 12.72,3.23 16.37,9.1l42.09 67.51 70.47 0c-7.18,-24.23 -66.71,-220.73 -66.71,-227.66 0,-10.67 8.65,-19.32 19.32,-19.32l98.8 0 0 0.07c6.59,0.01 13.02,3.41 16.6,9.51l142.81 243.36z"/>
</g>
</svg>