<svg width="42" height="42" viewBox="0 0 42 42" fill="none" xmlns="http://www.w3.org/2000/svg">
<path d="M14.7 33.6C11.214 33.6 8.4 30.786 8.4 27.3C8.4 23.1 14.7 16.023 14.7 16.023C14.7 16.023 21 23.1 21 27.3C21 30.786 18.186 33.6 14.7 33.6ZM25.2 4.2V37.8H4.2V4.2H0V37.8C0 40.131 1.869 42 4.2 42H25.2C27.531 42 29.4 40.131 29.4 37.8V4.2H25.2ZM16.8 8.4V0H12.6V8.4H6.3V12.6H23.1V8.4H16.8ZM39.9 32.55V7.35C39.9 5.607 38.493 4.2 36.75 4.2C35.007 4.2 33.6 5.607 33.6 7.35V32.55C32.8841 33.0869 32.3173 33.798 31.9535 34.6156C31.5896 35.4332 31.4408 36.3302 31.5212 37.2215C31.6016 38.1128 31.9084 38.9687 32.4127 39.708C32.9169 40.4474 33.6017 41.0455 34.4021 41.4457C35.2025 41.846 36.092 42.0349 36.986 41.9947C37.88 41.9545 38.7488 41.6864 39.5101 41.2159C40.2713 40.7454 40.8997 40.0882 41.3355 39.3066C41.7712 38.5249 42 37.6449 42 36.75C42 35.091 41.223 33.6 39.9 32.55ZM37.8 23.1H35.7V8.4H37.8V23.1Z" fill="#136B38"/>
</svg>
