<svg width="24" height="24" viewBox="0 0 24 24" fill="none" xmlns="http://www.w3.org/2000/svg">
<path d="M9.249 18.876L2.737 14.194M5.739 11.521L10.882 15.334M5.636 11.005L11.247 5.54M10.391 1.578L1.256 10.25M16.293 7.382L13.993 5.032M0.75 11.751C0.75 12.414 1.01339 13.0499 1.48223 13.5188C1.95107 13.9876 2.58696 14.251 3.25 14.251C3.91304 14.251 4.54893 13.9876 5.01777 13.5188C5.48661 13.0499 5.75 12.414 5.75 11.751C5.75 11.088 5.48661 10.4521 5.01777 9.98323C4.54893 9.51439 3.91304 9.251 3.25 9.251C2.58696 9.251 1.95107 9.51439 1.48223 9.98323C1.01339 10.4521 0.75 11.088 0.75 11.751ZM9.748 3.25C9.748 3.91304 10.0114 4.54893 10.4802 5.01777C10.9491 5.48661 11.585 5.75 12.248 5.75C12.911 5.75 13.5469 5.48661 14.0158 5.01777C14.4846 4.54893 14.748 3.91304 14.748 3.25C14.748 2.58696 14.4846 1.95107 14.0158 1.48223C13.5469 1.01339 12.911 0.75 12.248 0.75C11.585 0.75 10.9491 1.01339 10.4802 1.48223C10.0114 1.95107 9.748 2.58696 9.748 3.25ZM15.749 8.751C15.749 9.28143 15.9597 9.79014 16.3348 10.1652C16.7099 10.5403 17.2186 10.751 17.749 10.751C18.2794 10.751 18.7881 10.5403 19.1632 10.1652C19.5383 9.79014 19.749 9.28143 19.749 8.751C19.749 8.22057 19.5383 7.71186 19.1632 7.33679C18.7881 6.96171 18.2794 6.751 17.749 6.751C17.2186 6.751 16.7099 6.96171 16.3348 7.33679C15.9597 7.71186 15.749 8.22057 15.749 8.751Z" stroke="#136B38" stroke-width="1.5" stroke-linecap="round" stroke-linejoin="round"/>
<path d="M19.7 8.30085C20.1332 8.22005 20.579 8.2357 21.0055 8.34669C21.432 8.45767 21.8288 8.66127 22.1677 8.94299C22.5067 9.22472 22.7793 9.57766 22.9664 9.97671C23.1534 10.3758 23.2503 10.8111 23.25 11.2518M20.25 14.2518C19.8093 14.252 19.3739 14.155 18.9749 13.9679C18.5759 13.7807 18.223 13.5079 17.9414 13.1689C17.6597 12.8299 17.4563 12.433 17.3454 12.0064C17.2346 11.5798 17.2191 11.1341 17.3 10.7008M1 23.2518H23M9.25 23.2518V18.0008C9.25 17.2052 9.56607 16.4421 10.1287 15.8795C10.6913 15.3169 11.4544 15.0008 12.25 15.0008C13.0456 15.0008 13.8087 15.3169 14.3713 15.8795C14.9339 16.4421 15.25 17.2052 15.25 18.0008V23.2508" stroke="#136B38" stroke-width="1.5" stroke-linecap="round" stroke-linejoin="round"/>
</svg>
