<svg width="24" height="24" viewBox="0 0 24 24" fill="none" xmlns="http://www.w3.org/2000/svg">
<path d="M3.488 15.432V12.944H20.41V15.432M19.724 5.229H21.217M19.415 8.653L20.47 9.709M19.415 1.806L20.47 0.75M4.174 5.229H2.681M4.483 8.653L3.427 9.709M4.483 1.806L3.427 0.75M11.949 9.811V14.935M0.75 20.637C0.75 21.33 1.0253 21.9946 1.51533 22.4847C2.00536 22.9747 2.66999 23.25 3.363 23.25C4.05601 23.25 4.72064 22.9747 5.21067 22.4847C5.7007 21.9946 5.976 21.33 5.976 20.637C5.976 19.944 5.7007 19.2794 5.21067 18.7893C4.72064 18.2993 4.05601 18.024 3.363 18.024C2.66999 18.024 2.00536 18.2993 1.51533 18.7893C1.0253 19.2794 0.75 19.944 0.75 20.637ZM9.46 18.17H14.437V23.147H9.46V18.17ZM23.148 23.147H17.175L20.161 17.672L23.148 23.147ZM15.682 4.585C15.6832 3.9117 15.5022 3.25061 15.1583 2.67177C14.8144 2.09293 14.3203 1.61788 13.7284 1.29694C13.1365 0.975999 12.4688 0.821117 11.7961 0.848697C11.1234 0.876278 10.4706 1.08529 9.90696 1.45361C9.34333 1.82192 8.8898 2.33582 8.59442 2.94087C8.29904 3.54593 8.17279 4.2196 8.22907 4.89055C8.28534 5.5615 8.52203 6.20474 8.91406 6.75214C9.3061 7.29954 9.83889 7.73071 10.456 8V9.811H13.442V8.001C14.1072 7.71117 14.6733 7.23364 15.0712 6.6269C15.4691 6.02016 15.6813 5.31055 15.682 4.585Z" stroke="#136B38" stroke-width="1.5" stroke-linecap="round" stroke-linejoin="round"/>
</svg>
